<svg width="665px" height="657px" viewBox="0 0 665 657" version="1.1" xmlns="http://www.w3.org/2000/svg" xmlns:xlink="http://www.w3.org/1999/xlink">
    <defs>
        <linearGradient x1="50%" y1="0%" x2="50%" y2="100%" id="linearGradient-d2gosq-2li-1">
            <stop stop-color="#FFCA9A" offset="0%"></stop>
            <stop stop-color="#FF44EA" offset="100%"></stop>
        </linearGradient>
    </defs>
    <g id="Page-1" stroke="none" stroke-width="1" fill="none" fill-rule="evenodd">
        <g id="Shape-8" transform="translate(0.012291, 0.002500)" fill="url(#linearGradient-d2gosq-2li-1)" fill-rule="nonzero">
            <path d="M389.367709,41.5275 L389.367709,41.5275 C395.04421,59.1246586 408.526907,73.1155495 425.902097,79.4389536 C443.277287,85.7623577 462.598668,83.7099518 478.257709,73.8775 L478.257709,73.8775 C527.527709,42.9975 587.537709,93.2975 565.637709,147.1975 L565.637709,147.1975 C558.670426,164.325022 560.002273,183.71009 569.246517,199.723802 C578.490761,215.737515 594.611501,226.585391 612.927709,229.1175 L612.927709,229.1175 C670.557709,237.1175 684.167709,314.2475 632.737709,341.4475 L632.737709,341.4475 C616.394615,350.09484 604.958048,365.801848 601.746685,384.010647 C598.535323,402.219445 603.908753,420.891119 616.307709,434.6075 L616.307709,434.6075 C655.307709,477.7575 616.167709,545.6075 559.307709,533.3875 L559.307709,533.3875 C541.229298,529.505044 522.37101,534.186594 508.207237,546.073139 C494.043464,557.959683 486.160873,575.719658 486.847709,594.1975 L486.847709,594.1975 C488.997709,652.3375 415.387709,679.1275 379.667709,633.1975 L379.667709,633.1975 C368.315585,618.600263 350.8596,610.062231 332.367709,610.062231 C313.875817,610.062231 296.419832,618.600263 285.067709,633.1975 L285.067709,633.1975 C249.347709,679.1175 175.727709,652.3275 177.887709,594.1975 L177.887709,594.1975 C178.571276,575.718774 170.686264,557.959244 156.5211,546.073172 C142.355936,534.187101 123.497029,529.505652 105.417709,533.3875 L105.417709,533.3875 C48.5377086,545.6075 9.36770857,477.7575 48.4177086,434.6075 L48.4177086,434.6075 C60.8205645,420.89272 66.1965337,402.21976 62.9849227,384.009555 C59.7733117,365.799349 48.3339201,350.092002 31.9877086,341.4475 L31.9877086,341.4475 C-19.4922914,314.2475 -5.89229143,237.0975 51.7377086,229.1175 L51.7377086,229.1175 C70.0537772,226.584382 86.1744678,215.736966 95.4201782,199.724099 C104.665889,183.711233 106.000911,164.326682 99.0377086,147.1975 L99.0377086,147.1975 C77.1277086,93.2975 137.137709,42.9975 186.407709,73.8775 L186.407709,73.8775 C202.068313,83.7098275 221.390849,85.7622141 238.76745,79.4390078 C256.144051,73.1158015 269.628657,59.1251581 275.307709,41.5275 L275.307709,41.5275 C293.167709,-13.8425 371.507709,-13.8425 389.367709,41.5275 Z" id="Path"></path>
        </g>
    </g>
</svg>